<svg xmlns="http://www.w3.org/2000/svg" xmlns:xlink="http://www.w3.org/1999/xlink" width="1718"
    height="2048">
    <g>
        <svg xmlns="http://www.w3.org/2000/svg" xmlns:xlink="http://www.w3.org/1999/xlink"
            width="1718" height="2048" />
        <svg xmlns="http://www.w3.org/2000/svg" width="1718" height="2048" version="1.0"
            viewBox="0 0 1718 2048">
            <g fill="white" transform="matrix(.1 0 0 -.1 0 2048)">
                <path
                    d="M1140 20470c0-5-22-10-50-10-27 0-71-4-97-9s-79-14-118-21c-79-14-192-46-290-83-53-20-137-82-227-166-201-188-312-447-335-773-3-49-9-88-14-88s-9-3932-9-9210C0 3977 3 900 10 900c6 0 10-16 10-36 0-36 29-162 55-241 33-98 105-218 177-294C361 213 596 93 784 58c46-9 2066-13 8081-15 7351-3 8024-2 8072 13 124 38 205 143 207 270 0 51-2 58-29 77-69 47-164 155-199 225-20 39-36 76-36 82s-9 30-20 52c-11 23-20 48-20 57 0 8-5 30-10 48-24 80-29 102-37 168-20 174-4 343 48 500 73 220 142 338 263 453l56 52v9067c0 6760-3 9076-11 9102-45 140-159 251-259 251-16 0-30 5-30 10 0 7-2627 10-7860 10s-7860-3-7860-10z" />
            </g>
        </svg>
        <svg xmlns="http://www.w3.org/2000/svg" width="1718" height="2048" version="1.0"
            viewBox="0 0 1718 2048">
            <g fill="black" transform="matrix(.1 0 0 -.1 0 2048)">
                <path
                    d="M1140 20470c0-5-22-10-50-10-27 0-71-4-97-9s-79-14-118-21c-79-14-192-46-290-83-53-20-137-82-227-166-201-188-312-447-335-773-3-49-9-88-14-88s-9-3932-9-9210C0 3977 3 900 10 900c6 0 10-16 10-36 0-36 29-162 55-241 33-98 105-218 177-294C361 213 596 93 784 58c46-9 2066-13 8081-15 7351-3 8024-2 8072 13 124 38 205 143 207 270 0 51-2 58-29 77-69 47-164 155-199 225-20 39-36 76-36 82s-9 30-20 52c-11 23-20 48-20 57 0 8-5 30-10 48-24 80-29 102-37 168-20 174-4 343 48 500 73 220 142 338 263 453l56 52v9067c0 6760-3 9076-11 9102-45 140-159 251-259 251-16 0-30 5-30 10 0 7-2627 10-7860 10s-7860-3-7860-10zM16840 1987c0-2-20-38-44-81s-59-118-77-167l-33-89H8703c-4698 0-7983 4-7983 9 0 24 164 161 239 200 114 59 326 109 531 124 58 4 15350 8 15350 4zm-193-464c-4-16-14-83-24-150l-18-123H589l6 48c10 71 33 159 55 208l19 44h15983l-5-27zm-33-465c3-51 12-121 20-156l14-62-8007 2-8006 3-22 65c-22 64-32 217-16 233 3 4 3607 7 8008 7h8002l7-92zm85-371c16-51 70-166 107-225l26-42-7798 3c-7481 2-7802 3-7873 21-100 24-252 79-304 109-54 32-107 85-136 137l-22 40h15988l12-43z" />
            </g>
        </svg>
        <svg xmlns="http://www.w3.org/2000/svg" width="1718" height="2048" version="1.0"
            viewBox="0 0 1718 2048">
            <g fill="black" transform="matrix(.1 0 0 -.1 0 2048)">
                <path
                    d="M1145 20470c-3-5-26-10-50-10-62 0-172-18-285-47-52-13-111-28-130-32s-49-15-67-24-37-17-43-17c-21 0-125-77-206-153-152-142-263-341-305-547l-20-100c-5-25-14-88-21-140C2 19262-6 1040 10 920c45-337 165-562 369-694C501 148 661 81 788 57c41-8 2325-12 8077-14 7422-3 8024-2 8073 13 81 25 132 68 171 146 26 52 34 81 35 124 0 51-2 58-29 77-105 72-206 210-245 332-7 22-16 45-20 50-3 6-12 37-19 70s-17 71-21 85c-5 14-14 69-20 124-18 149 1 315 52 476 68 211 139 332 262 448l56 52v9062c0 6617-3 9072-11 9102-37 136-158 256-258 256-17 0-33 4-36 10-9 14-15701 14-15710 0zM16840 1984c0-3-20-42-45-86-24-44-56-109-69-146s-27-75-31-85c-7-16-397-17-7997-17H709l28 37c45 59 152 142 238 183 44 22 127 51 185 64 237 57-323 54 8003 55 4222 0 7677-2 7677-5zm-190-441c0-5-10-75-22-157l-22-148-59 6c-33 3-3637 6-8008 6-7949 0-7949 0-7949 24 0 39 27 158 50 219l21 57h7995c4397 0 7994-3 7994-7zm-35-470c4-43 13-112 21-153s14-76 14-77c0-2-3604-3-8010-3H631l-21 66c-14 46-20 94-20 155v89h16018l7-77zm105-431c20-50 54-119 74-151s36-62 36-65-3513-5-7808-3c-7807 2-7807 2-7887 24-224 61-342 125-403 220-18 27-32 55-32 61 0 9 1922 11 7991 10l7992-3 37-93z" />
            </g>
        </svg>
        <svg xmlns="http://www.w3.org/2000/svg" width="1718" height="2048" version="1.0"
            viewBox="0 0 1718 2048">
            <g fill="black" transform="matrix(.1 0 0 -.1 0 2048)">
                <path
                    d="M1100 20463c-83-7-284-43-355-64-194-58-265-99-400-234-207-206-291-423-335-865-7-72-10-3006-10-9201C0 1992 2 992 15 895c35-249 107-420 233-557 66-71 134-119 257-180 107-54 189-81 313-102 83-15 846-16 8082-16 7989 0 7989 0 8044 20 86 33 130 70 166 144 43 88 47 171 10 195-52 33-153 138-184 191-44 76-92 199-115 300-56 239-49 435 21 650 74 223 127 316 248 434l70 68v9057c0 7522-2 9064-14 9106-29 109-97 194-191 237-50 23-50 23-7930 24-4334 0-7900-1-7925-3zM16838 1968c-42-64-84-148-113-226-22-57-39-88-51-91-11-3-3608-4-7994-1l-7975 5 80 80c83 83 169 137 279 175 67 23 234 57 336 69 41 5 3525 9 7764 10 7688 1 7688 1 7674-21zm-182-436c-8-26-35-202-38-245l-3-38H629l-46 1 9 58c11 74 33 158 52 205l16 37h8001c7615 0 8000-1 7995-18zm-39-452c2-36 10-101 18-146 8-44 15-84 15-87 0-4-3604-7-8008-7H633l-17 43c-25 63-40 166-32 220l7 47 8011-2 8011-3 4-65zm97-417c15-43 48-113 72-155 24-43 44-81 44-85 0-5-3498-7-7772-5-6773 2-7784 4-7859 17-92 15-247 64-314 97-61 31-122 85-160 141-19 29-35 55-35 59 0 5 3599 8 7998 8h7997l29-77z" />
            </g>
        </svg>
        <svg xmlns="http://www.w3.org/2000/svg" width="1718" height="2048" version="1.0"
            viewBox="0 0 1718 2048">
            <g fill="red" transform="matrix(.1 0 0 -.1 0 2048)">
                <path
                    d="M1080 20459c-176-20-335-57-480-111-65-24-141-78-232-166-227-218-313-429-353-862-14-160-15-982-12-9290C6 1383 7 911 23 830c53-254 154-443 299-560 74-59 215-133 325-171 190-64-513-59 8251-59 7122 0 7984 2 8030 15 102 31 187 122 210 227 17 72 7 96-62 148-93 71-158 164-209 305-101 274-110 552-26 810 68 212 135 325 267 451l52 50v9040c0 6464-3 9057-11 9100-21 115-105 221-207 261-45 17-297 18-7917 19-4329 1-7904-2-7945-7zM16846 1988c1-2-16-35-38-73-38-66-63-120-101-225l-17-45-7986 2c-4393 1-7990 5-7993 9-3 3 33 43 80 88 64 61 108 93 170 124 132 66 332 108 559 120 124 7 15319 6 15326 0zm-190-460c-3-13-13-77-22-143s-18-126-20-133c-3-10-1611-12-8016-10l-8013 3 4 45c4 54 33 170 55 223l16 37h8001c8001 0 8001 0 7995-22zm-48-378c8 0 12-19 12-62 1-35 7-99 15-143s15-88 15-97c0-17-387-18-7998-18-6383 0-8001 3-8014 13-29 22-59 145-56 228 3 73 3 74 32 79 17 3 3619 4 8005 2 4387-1 7982-2 7989-2zm102-472c25-69 77-176 109-223 12-16 21-33 21-38 0-4-3504-6-7787-4-7069 3-7795 4-7863 19-86 18-236 67-304 99-60 28-137 98-170 153-14 25-26 47-26 50s3599 6 7999 6h7998l23-62z" />
            </g>
        </svg>
        <svg xmlns="http://www.w3.org/2000/svg" width="1718" height="2048" version="1.0"
            viewBox="0 0 1718 2048">
            <g fill="red" transform="matrix(.1 0 0 -.1 0 2048)">
                <path
                    d="M1080 20459c-176-20-335-57-480-111-65-24-141-78-232-166-227-218-313-429-353-862-14-160-15-982-12-9290C6 1383 7 911 23 830c53-254 154-443 299-560 74-59 215-133 325-171 190-64-513-59 8251-59 7122 0 7984 2 8030 15 102 31 187 122 210 227 17 72 7 96-62 148-93 71-158 164-209 305-101 274-110 552-26 810 68 212 135 325 267 451l52 50v9040c0 6464-3 9057-11 9100-21 115-105 221-207 261-45 17-297 18-7917 19-4329 1-7904-2-7945-7zm15811-209c10-6 19-17 19-25s6-18 14-22c22-13 58-92 51-114-8-23-25-25-25-3 0 18-31 77-43 82-4 2-5 8-1 13 3 5 0 9-6 9s-18 7-26 15c-9 8-11 15-5 15s11 5 11 11c0 5-4 7-10 4-5-3-10-1-10 4 0 6-7 11-15 11s-15-5-15-12c0-6-3-9-6-5-10 10 6 27 27 27 11 0 29-5 40-10zm-391-130c62-4 83-7 53-8-29-1-53-6-53-12 0-9 38-15 63-11 4 1 27-5 50-13l42-15-37-1c-20 0-40-5-43-11-5-6-23-8-49-4-22 4-52 7-66 7-144-4-442-1-467 4-52 10-38 24 25 25 31 0 77 4 102 8 45 8 45 8-15 12l-60 3 53 3c28 2 52 8 52 14 0 10 190 10 350-1zm347-21c-1-15-9-19-39-19-21 0-38 4-38 10 0 5 7 7 15 4 8-4 15-1 15 5s-6 11-12 12c-7 0-4 4 7 8 29 11 54 2 52-20zm-15321-8c-2-3 3-13 12-21 14-13 15-12 9 2-4 12-2 15 8 11 8-3 13-9 10-13s2-13 10-20 12-16 9-21 2-9 10-9c9 0 18-11 22-25 3-14 10-25 16-25 11 0 38-62 32-72-3-5 0-8 6-8s9-4 5-9c-3-5-1-12 5-16 5-3 10-14 9-23 0-13-3-12-11 6-6 12-15 22-20 22-4 0-8 9-8 20s-4 20-10 20c-5 0-10 7-10 15s-4 15-10 15c-5 0-10 9-10 19 0 15-5 18-22 14-23-5-23-5-3 10 23 19 5 23-26 7-13-7-19-7-19 0 0 5 7 10 15 10s15 5 15 10c0 13-6 13-32-1-15-8-22-8-28 1-4 7-23 16-41 21l-34 8 33-3c22-2 32 2 32 11 0 18-25 44-34 36-3-4-6-1-6 5s10 12 23 14c26 4 49-1 43-11zm-493-17c-6-16-13-17-28-6-20 14-14 29 10 24 15-2 22-9 18-18zm97 6c0-5-2-10-4-10-3 0-8 5-11 10-3 6-1 10 4 10 6 0 11-4 11-10zm-162-10c6 0 12-5 12-11s-6-9-14-6-20-1-27-9-18-13-25-10-16 1-19-4-12-7-20-3c-8 3-15 1-15-4 0-15-58-13-63 1-4 10 4 12 30 9 29-4 35-2 30 10-4 12 0 14 20 11 15-3 31-8 36-11 6-4 8 3 4 16-5 20-3 22 16 17 12-3 28-6 35-6zm4850-5c-6-7-2520-7-2526 0-3 3 565 5 1263 5s1266-2 1263-5zm6325-2c-1156-2-3050-2-4210 0-1159 1-214 2 2102 2s3264-1 2108-2zm2180 0c-13-2-35-2-50 0-16 2-5 4 22 4 28 0 40-2 28-4zm730 0c-127-2-339-2-470 0-131 1-26 2 232 2 259 0 366-1 238-2zm1727-3c0-5-7-7-15-4-8 4-15 8-15 10s7 4 15 4 15-4 15-10zm-15995-61c-4-5-13-9-21-9s-14-4-14-10c0-5-9-10-20-10s-20-4-20-10c0-5-5-10-11-10-13 0-99-58-120-82-9-10-19-15-23-11-3 3-6 1-6-6 0-6-11-23-25-37s-25-30-25-35c0-6-12-26-26-44-15-20-23-39-18-46 4-7 3-9-3-6-6 4-17-10-26-31-8-21-22-44-31-51-26-22-20 21 11 82 15 29 28 57 29 63 4 24 37 64 47 57 5-3 7-1 4 4-9 15 111 125 179 165 53 30 132 49 119 27zm466-46c13-17 13-17-6-3-11 8-22 16-24 17-2 2 0 3 6 3s17-8 24-17zm223 8c16-1 17-3 5-18-8-9-9-14-4-11 6 3 21-5 35-19 23-22 21-22-34 6-46 24-73 31-126 32-38 1-73 5-78 8-8 5 133 7 202 2zm-123-54c-18-11-52-22-76-25-25-2-45-9-45-13 0-12-191-11-210 1-12 8-10 10 10 10 24 1 64 23 56 31-5 5 104 12 202 13 39 0 72 4 72 9 0 4 5 5 11 1 7-4-1-14-20-27zm59 23c0-5-5-10-11-10-5 0-7 5-4 10 3 6 8 10 11 10 2 0 4-4 4-10zm-223-117c-20-2-52-2-70 0-17 2 0 4 38 4 39 0 53-2 32-4zm533-49c0-8-4-14-10-14-5 0-10 9-10 21 0 11 5 17 10 14 6-3 10-13 10-21zm15090-54c0-5-8-10-17-10-15 0-16 2-3 10 19 12 20 12 20 0zm8-106c2-47 7-96 12-109s9-148 10-301c0-163 5-282 10-289 13-16 14-15018 1-15063-6-18-11-175-12-350-1-194-5-322-11-329-7-9-7-13 1-13 7 0 9-5 4-12-8-14-11-27-19-78-12-86-8-81-65-82-36 0-40-2-21-9 31-12 27-16-13-13-40 4-45-3-12-16 22-9 22-9-3-11-20-1-18-3 10-8 23-4 35-12 36-24 2-13 1-14-3-2-6 19-39 15-35-4 2-9-3-11-13-8-10 5-15 0-15-13 0-11-5-20-11-20-5 0-7 5-4 10 4 6-18 10-59 10-61 0-116 14-116 30 0 4-13 6-30 5-16-1-45-2-62-3-25-2-30-5-18-12 11-7 6-10-20-9-28 0-31 2-15 9 17 6 13 9-20 14-67 12-71 14-35 15 25 1 31 4 21 10-11 7-4 11 25 16 69 11 70 13 14 15-47 2-51 3-25 10l30 8-30 2c-16 1-24 4-16 7 11 5 11 7 0 14-12 8-11 12 3 23 10 7 15 16 11 19-3 4 2 7 13 7 16 0 17 2 4 10-8 5-10 10-4 10 16 0 25 40 11 41-9 0-9 2 0 5 7 3 9 12 6 20s0 14 7 14c6 0 8 5 5 11-4 6 2 13 13 16 11 2 28 21 38 41 11 21 22 39 25 42s5 15 4 27c-1 13 1 23 5 23s7 6 8 13c11 95 14 1410 16 8107 2 5257 6 7861 13 7893 5 26 6 47 2 47s-6 12-4 28c1 15-2 30-9 34-6 4 6 8 26 8s39-6 41-12c4-10 8-10 15 1 7 10 14 10 29 3 10-6 24-8 29-4 20 13 44 57 44 78 0 12 7 25 16 28 15 6 15 4 3-10-13-16-12-16 9-5 19 10 22 9 22-9 0-11 5-20 10-20 9 0 14 24 8 34-2 2 5 13 14 23 10 11 19 32 20 46 1 15 6 27 11 27s3 8-4 17c-12 15-12 16 4 10 11-4 16-3 12 3-3 6 0 10 7 11 10 0 10 2-1 6-11 5-11 7 0 14 8 5 16 9 19 9s6-39 8-86zm-487 57c-11-7-11-9 0-14 8-3-17-5-56-5-63 1-65 2-25 8 45 6 45 6 10 11-27 5-21 6 25 7 37 1 55-2 46-7zm46 3c-3-3-12-4-19-1-8 3-5 6 6 6 11 1 17-2 13-5zm-15607-74c0-5-2-10-4-10-3 0-8 5-11 10-3 6-1 10 4 10 6 0 11-4 11-10zm640-326c0-8 5-14 11-14 5 0 7 4 4 10s1 7 9 4c13-5 16-25 17-98 1-50 1-94 0-98 0-4 5-5 13-2 10 4 14-6 15-38 1-36 8-151 10-181 1-5 5-6 11-2 5 3 10-64 13-177 1-101 4-3499 5-7553s4-7379 6-7390c3-11 5-37 5-58 1-23 5-36 11-32 11 7 14-18 3-29-11-10-12-37-2-30 15 9 10-105-6-136-9-17-16-33-16-37-3-20-11-30-24-30-8 0-15 5-16 11 0 6-5 0-10-13-7-17-15-22-30-18-14 4-19 1-16-7 3-7-8-17-24-23-22-8-29-8-30 0 0 8-2 8-6 0-6-17-27-17-20-1 3 9-8 14-36 16-36 2-99 32-69 32 7 0 11 4 8 9s-27 9-52 9c-63 2-70 12-8 12 79 0 91 19 14 22l-65 1 65 7c74 7 70 11-18 18-22 2-22 3-7 18 8 9 24 14 34 11 26-6 45 8 38 27-5 12-21 16-71 16-36 0-68 4-71 10-3 5-1 10 4 10 6 0 10 5 8 12-1 6 9 14 23 18 25 7 25 7-5 12-23 4-19 5 17 7 26 0 58-3 72-9 14-5 28-5 31-1 8 14-22 21-85 21-50 0-58 3-56 18 2 12 11 17 32 16 53-3 59-7 24-14-34-7-34-7 12-9 25 0 52-3 60-6 9-4 14 3 16 17 4 37 7 52 15 65 7 12 11 58 22 268 4 72 10 134 12 139 4 6 7 14251 3 14840-1 82 3 152 8 155 12 8 26 43 23 59-1 7 4 15 12 17 7 3 14 24 16 48 1 23 6 44 12 45 5 2 9 10 9 18 0 9 5 12 10 9 6-3 10-13 10-21zm70-168c0-3-4-8-10-11-5-3-10-1-10 4 0 6 5 11 10 11 6 0 10-2 10-4zm27-188c-3-8-6-5-6 6-1 11 2 17 5 13 3-3 4-12 1-19zm0-40c-3-8-6-5-6 6-1 11 2 17 5 13 3-3 4-12 1-19zm14660-24c-3-3-12-4-19-1-8 3-5 6 6 6 11 1 17-2 13-5zm0-20c-3-3-12-4-19-1-8 3-5 6 6 6 11 1 17-2 13-5zm4-21c0-5 3-33 5-63 8-78-3-157-22-157-8 0-14 11-15 26-2 48-6 78-12 95-4 9-2 16 4 16s10 10 9 23c-4 47 0 67 15 67 8 0 15-3 16-7zm-3-15340c-10-2-26-2-35 0-10 3-2 5 17 5s27-2 18-5zm27-23c-3-5 1-10 10-10s13-4 10-10c-3-5-2-10 2-10 5 0 10-12 11-27 1-16 4-37 6-47 1-11-1-40-6-65s-11-70-13-98c-5-56-26-108-47-116-7-3-4-6 7-6 17-1 17-3 5-11-13-8-13-10-1-10 11 0 10-4-4-13-13-11-55-13-169-11-83 1-133-1-111-5 89-16-85-23-421-17-187 4-436 7-554 8l-215 2 170 6c94 3-1218 6-2915 6s-3033-3-2970-6c115-6 115-6-35-7-87 0-135 3-115 7 19 4-363 7-850 7-487-1-842-4-790-7 84-5 77-6-60-6-103-1-135 2-95 6 45 5 30 7-65 7s-110-2-65-7c54-6 51-7-35-7-65 0-84 2-60 7 19 4-410 7-955 7-544-1-943-4-885-7 61-4-26-6-205-6-285 0-294 1-105 6 141 4 64 6-250 6-250 0-426-2-390-6 49-5 32-7-70-7-107 1-120 2-65 7 39 4-157 8-435 9-278 2-518 7-535 11-16 4 137 9 340 11l370 4-345 5-345 5 410 5 410 5-320 5-320 5 330 5c319 4 323 5 135 10-594 16 495 20 5744 22l5751 3-5840 5-5840 5 5905 3c3248 1 5984 5 6080 10 169 7 172 7 80 13-82 4-75 5 55 5 98 1 131-2 95-6-33-4 21-7 130-6 175 0 179 0 60 6l-125 6 128 2c76 1 126 6 122 11-3 5 3 16 13 23 19 14 24 49 7 60-6 5-2 8 9 8s17 3 13 6c-8 8 20 64 32 64 4 0 20 24 36 53 15 28 32 58 38 65 11 15 121 17 112 2zm-15057-67c-10-2-28-2-40 0-13 2-5 4 17 4 22 1 32-1 23-4zm275-92c4 0 7-5 7-10s-9-7-20-4c-24 6-26-5-4-21 12-9 0-10-50-6-68 6-100 19-50 21 29 1 29 1 4 9-22 6-21 8 15 12 35 3 71 3 98-1zm-110-58c-7-2-19-2-25 0-7 3-2 5 12 5s19-2 13-5zm93-6c4-4 1-7-6-7-10 0-8-4 4-13 16-12 16-13-2-13-10 0-23 10-29 23-9 19-8 22 8 20 10-2 22-6 25-10zm1447-34c-7-2-19-2-25 0-7 3-2 5 12 5s19-2 13-5zm-1446-19c-3-3-12-4-19-1-8 3-5 6 6 6 11 1 17-2 13-5zm1476-1c-13-2-33-2-45 0-13 2-3 4 22 4s35-2 23-4zm-1545-20c-10-2-26-2-35 0-10 3-2 5 17 5s27-2 18-5zm68-5c5-8 2-9-9-5s-17 1-17-7c0-18-31-22-115-15-60 5-64 6-25 9 106 7 125 10 128 20 5 14 29 13 38-2zm1512 5c-21-2-55-2-75 0-21 2-4 4 37 4s58-2 38-4zm21-29c2-2-28-4-68-4-45 0-70 4-66 10 5 9 123 3 134-6zm344-1c-51-2-135-2-185 0-51 1-10 3 92 3s143-2 93-3zm-2155-20c-15-2-42-2-60 0s-6 4 27 4 48-2 33-4zm1752-1c-35-5-35-5-5-12 30-8 30-8-2-9-18 0-33 4-33 10 0 5-4 7-10 4-5-3-10-1-10 4 0 7 20 10 48 9 42-1 43-2 12-6zm263-9c-13-2-33-2-45 0-13 2-3 4 22 4s35-2 23-4zm-194-39c2-2-20-4-50-3-40 1-48 3-29 8 24 8 70 5 79-5zm-49-24c0-5-7-7-15-4-8 4-15 8-15 10s7 4 15 4 15-4 15-10zm-1770-8c0-4-10-9-22-9-18-2-20 0-8 7 18 12 30 13 30 2zm-70-12c8-5 11-12 7-17-5-4-12-1-16 6-5 8-14 10-21 6-9-5-11-4-6 3 9 14 16 15 36 2zm3083-7c-7-2-19-2-25 0-7 3-2 5 12 5s19-2 13-5zm140 0c-24-2-62-2-85 0-24 2-5 4 42 4s66-2 43-4zm125 0c-16-2-40-2-55 0-16 2-3 4 27 4s43-2 28-4zm1420 0c-130-2-346-2-480 0-134 1-27 2 237 2s373-1 243-2zm380 0c-27-2-69-2-95 0-27 2-5 3 47 3s74-1 48-3zm325 0c-35-2-91-2-125 0-35 2-7 3 62 3s97-1 63-3zm205 0c-27-2-69-2-95 0-27 2-5 3 47 3s74-1 48-3zm690 0c-21-2-55-2-75 0-21 2-4 4 37 4s58-2 38-4zm165 0c-24-2-62-2-85 0-24 2-5 4 42 4s66-2 43-4zm185 0c-27-2-69-2-95 0-27 2-5 3 47 3s74-1 48-3zm115 0c-13-2-33-2-45 0-13 2-3 4 22 4s35-2 23-4zm175 0c-26-2-71-2-100 0s-8 3 47 3 79-1 53-3zm99 1c-3-3-12-4-19-1-8 3-5 6 6 6 11 1 17-2 13-5zm116-1c-18-2-48-2-65 0-18 2-4 4 32 4s50-2 33-4zm95 0c-10-2-28-2-40 0-13 2-5 4 17 4 22 1 32-1 23-4zm320 0c-53-2-143-2-200 0-57 1-13 3 97 3s156-2 103-3zm510 0c-10-2-28-2-40 0-13 2-5 4 17 4 22 1 32-1 23-4zm150 0c-21-2-57-2-80 0-24 2-7 4 37 4s63-2 43-4zm100 0c-10-2-28-2-40 0-13 2-5 4 17 4 22 1 32-1 23-4zm185 0c-29-2-77-2-105 0-29 2-6 3 52 3s81-1 53-3zm255 0c-38-2-98-2-135 0-38 2-7 3 67 3s105-1 68-3zm130 0c-10-2-28-2-40 0-13 2-5 4 17 4 22 1 32-1 23-4zm185 0c-29-2-78-2-110 0s-8 3 52 3c61 0 87-1 58-3zm100 0c-7-2-19-2-25 0-7 3-2 5 12 5s19-2 13-5zm124 1c-3-3-12-4-19-1-8 3-5 6 6 6 11 1 17-2 13-5zm61-1c-10-2-26-2-35 0-10 3-2 5 17 5s27-2 18-5zm95 0c-13-2-35-2-50 0-16 2-5 4 22 4 28 0 40-2 28-4zm155 0c-10-2-28-2-40 0-13 2-5 4 17 4 22 1 32-1 23-4zm200 0c-32-2-84-2-115 0-32 2-6 3 57 3s89-1 58-3zm210 0c-10-2-28-2-40 0-13 2-5 4 17 4 22 1 32-1 23-4zm155 0c-18-2-48-2-65 0-18 2-4 4 32 4s50-2 33-4zm80 0c-7-2-19-2-25 0-7 3-2 5 12 5s19-2 13-5zm190 0c-23-2-64-2-90 0s-7 3 42 3c50 0 71-1 48-3zm84 1c-3-3-12-4-19-1-8 3-5 6 6 6 11 1 17-2 13-5zm276-1c-7-2-21-2-30 0-10 3-4 5 12 5 17 0 24-2 18-5zm114 0c-20-2-52-2-70 0-17 2 0 4 38 4 39 0 53-2 32-4zm86 0c-7-2-21-2-30 0-10 3-4 5 12 5 17 0 24-2 18-5zm105 0c-15-2-42-2-60 0s-6 4 27 4 48-2 33-4zm170 0c-27-2-69-2-95 0-27 2-5 3 47 3s74-1 48-3zm644 0c-112-2-292-2-400 0-108 1-17 2 203 2s309-1 197-2zm296 0c-15-2-42-2-60 0s-6 4 27 4 48-2 33-4zm480 0c-53-2-143-2-200 0-57 1-13 3 97 3s156-2 103-3zm305 0c-34-2-93-2-130 0s-9 3 62 3c72 0 102-1 68-3zm220 0c-7-2-21-2-30 0-10 3-4 5 12 5 17 0 24-2 18-5zm195 0c-10-2-28-2-40 0-13 2-5 4 17 4 22 1 32-1 23-4zm125 0c-18-2-48-2-65 0-18 2-4 4 32 4s50-2 33-4zm1474-9c-3-3-12-4-19-1-8 3-5 6 6 6 11 1 17-2 13-5zm-7864-21c-7-2-21-2-30 0-10 3-4 5 12 5 17 0 24-2 18-5zm50 0c-7-2-19-2-25 0-7 3-2 5 12 5s19-2 13-5zm384 1c-3-3-12-4-19-1-8 3-5 6 6 6 11 1 17-2 13-5zm6190 0c-3-3-12-4-19-1-8 3-5 6 6 6 11 1 17-2 13-5zm346-1c-51-2-136-2-190 0-54 1-12 3 92 3 105 0 149-2 98-3zm335 0c-43-2-113-2-155 0-43 1-8 3 77 3s120-2 78-3zm235 0c-23-2-64-2-90 0s-7 3 42 3c50 0 71-1 48-3zm-14768-31c-3-3-11 0-18 7-9 10-8 11 6 5 10-3 15-9 12-12zm14525-2c-295-5-295-5 140-10 239-3-2562-5-6225-5s-6433 2-6155 5c287 3 449 7 375 10-71 3 2635 6 6015 5 3380 0 6012-2 5850-5zm1205-10c-3-5-12-10-18-10-7 0-6 4 3 10 19 12 23 12 15 0zm-14017-7c-10-2-28-2-40 0-13 2-5 4 17 4 22 1 32-1 23-4zm-1081-45c-3-8-6-5-6 6-1 11 2 17 5 13 3-3 4-12 1-19zm-42-38c-3-5-14-10-23-10-15 0-15 2-2 10 20 13 33 13 25 0zm-145-10c85-6 75-7-91-8-102-1-233-7-292-13-74-7-112-7-124 0-14 8 3 11 67 12 61 1 77 4 55 9-39 10 258 10 385 0zm-595-50c-108-23-108-23-100-10 3 6 23 10 43 10 28 0 33 3 22 10-10 7 6 9 55 9l70-1-90-18zm15521 11c-9-13 31-23 75-19 21 2 33 8 32 16-2 6 6 12 17 12s20-7 20-16c0-8 4-13 9-9 5 3 12 1 16-5 7-11 5-12-125-10-67 0-91-3-80-10s-8-10-65-10c-55 0-75 3-65 10s-8 10-60 10-70-3-60-10-6-10-55-9c-48 0-64 3-50 9 11 5-2921 10-6655 12l-6675 3 6565 5 6565 5-6150 5-6150 5 6270 5c3449 3 6350 6 6448 8 121 2 177 0 173-7zM746 2734c-26-9-51-13-54-10s2 6 11 6c10 0 17 5 17 10 0 6 17 10 38 9 37 0 37 0-12-15zm-161-51c-140-48-156-53-150-42 4 5 12 9 19 9 8 0 19 7 26 15 7 9 19 14 26 11s44 6 81 19 75 24 83 23c8 0-30-15-85-35zm-182-3c20-24 6-27-17-4-18 17-20 24-8 24 4 0 15-9 25-20zm15950-27c-24-2-62-2-85 0-24 2-5 4 42 4s66-2 43-4zm-3235-190c-2022-2-5334-2-7360 0-2026 1-371 2 3677 2s5705-1 3683-2zm3728-475c1-2-16-35-38-73-38-66-63-120-101-225l-17-45-7986 2c-4393 1-7990 5-7993 9-3 3 33 43 80 88 64 61 108 93 170 124 132 66 332 108 559 120 124 7 15319 6 15326 0zm-190-460c-3-13-13-77-22-143s-18-126-20-133c-3-10-1611-12-8016-10l-8013 3 4 45c4 54 33 170 55 223l16 37h8001c8001 0 8001 0 7995-22zm-48-378c8 0 12-19 12-62 1-35 7-99 15-143s15-88 15-97c0-17-387-18-7998-18-6383 0-8001 3-8014 13-29 22-59 145-56 228 3 73 3 74 32 79 17 3 3619 4 8005 2 4387-1 7982-2 7989-2zm102-472c25-69 77-176 109-223 12-16 21-33 21-38 0-4-3504-6-7787-4-7069 3-7795 4-7863 19-86 18-236 67-304 99-60 28-137 98-170 153-14 25-26 47-26 50s3599 6 7999 6h7998l23-62zM1510 20035c0-8 9-15 20-15s20 4 20 10c0 5-7 6-17 3-11-4-14-3-9 5 4 7 2 12-3 12-6 0-11-7-11-15zM16438 2949c15-6 30-5 40 1 13 7 8 9-23 9-35 0-37-1-17-10zm-1340 154c6-2 18-2 25 0 6 3 1 5-13 5s-19-2-12-5zm825-50c26-2 67-2 90 0s2 3-48 3c-49 0-68-1-42-3zm-12275-20c7-3 16-2 19 1 4 3-2 6-13 5-11 0-14-3-6-6zm12260 0c34-2 88-2 120 0 31 2 3 3-63 3s-92-1-57-3zm-850-30c6-2 18-2 25 0 6 3 1 5-13 5s-19-2-12-5zm155 0c65-2 168-2 230 0 62 1 9 3-118 3-126 0-177-2-112-3zm425 0c6-2 18-2 25 0 6 3 1 5-13 5s-19-2-12-5zm-11725-80c9-2 25-2 35 0 9 3 1 5-18 5s-27-2-17-5zm85 0c18-2 45-2 60 0s0 4-33 4-45-2-27-4zm160 0c6-2 18-2 25 0 6 3 1 5-13 5s-19-2-12-5zm375 0c175-2 459-2 630 0 172 1 29 2-318 2-346 0-487-1-312-2zm985 0c7-3 16-2 19 1 4 3-2 6-13 5-11 0-14-3-6-6zm59 0c18-2 50-2 70 0 21 2 7 4-32 4-38 0-55-2-38-4zm191 0c46-2 118-2 160 0 42 1 5 3-83 3s-123-2-77-3zm325 0c48-2 125-2 170 0 45 1 6 3-88 3-93 0-130-2-82-3zm400 0c81-2 213-2 295 0 81 1 14 3-148 3s-229-2-147-3zm495 0c29-2 74-2 100 0s2 3-53 3-76-1-47-3zm160 0c6-2 18-2 25 0 6 3 1 5-13 5s-19-2-12-5zm50 0c7-3 16-2 19 1 4 3-2 6-13 5-11 0-14-3-6-6zm40 0c7-3 16-2 19 1 4 3-2 6-13 5-11 0-14-3-6-6zm85 0c9-2 23-2 30 0 6 3-1 5-18 5-16 0-22-2-12-5zm80 0c15-2 37-2 50 0 12 2 0 4-28 4-27 0-38-2-22-4zm115 0c23-2 59-2 80 0 20 2 1 4-43 4s-61-2-37-4zm245 0c9-2 25-2 35 0 9 3 1 5-18 5s-27-2-17-5zm65 0c6-2 18-2 25 0 6 3 1 5-13 5s-19-2-12-5zm80 0c6-2 18-2 25 0 6 3 1 5-13 5s-19-2-12-5zm140 0c17-2 47-2 65 0 17 2 3 4-33 4s-50-2-32-4zm310 0c18-2 45-2 60 0s0 4-33 4-45-2-27-4zm140 0c17-2 47-2 65 0 17 2 3 4-33 4s-50-2-32-4zm315 0c9-2 25-2 35 0 9 3 1 5-18 5s-27-2-17-5zm75 0c12-2 30-2 40 0 9 3-1 5-23 4-22 0-30-2-17-4zm370 0c7-3 16-2 19 1 4 3-2 6-13 5-11 0-14-3-6-6zm165 0c37-2 97-2 135 0 37 2 6 3-68 3s-105-1-67-3zm415 0c12-2 30-2 40 0 9 3-1 5-23 4-22 0-30-2-17-4zm105 0c26-2 68-2 95 0 26 2 4 3-48 3s-74-1-47-3zm210 0c9-2 25-2 35 0 9 3 1 5-18 5s-27-2-17-5zm80 0c15-2 39-2 55 0 15 2 2 4-28 4s-43-2-27-4zm95 0c6-2 18-2 25 0 6 3 1 5-13 5s-19-2-12-5zm50 0c7-3 16-2 19 1 4 3-2 6-13 5-11 0-14-3-6-6zm125 0c42-2 112-2 155 0 42 1 7 3-78 3s-120-2-77-3zm525 0c6-2 18-2 25 0 6 3 1 5-13 5s-19-2-12-5zm75 0c15-2 39-2 55 0 15 2 2 4-28 4s-43-2-27-4zm95 0c7-3 16-2 19 1 4 3-2 6-13 5-11 0-14-3-6-6zm45 0c9-2 23-2 30 0 6 3-1 5-18 5-16 0-22-2-12-5zm55 0c7-3 16-2 19 1 4 3-2 6-13 5-11 0-14-3-6-6zm75 0c26-2 67-2 90 0s2 3-48 3c-49 0-68-1-42-3zm145 0c7-3 16-2 19 1 4 3-2 6-13 5-11 0-14-3-6-6zm40 0c7-3 16-2 19 1 4 3-2 6-13 5-11 0-14-3-6-6zm155 0c32-2 81-2 110 0s3 3-58 3c-60 0-84-1-52-3zm185 0c6-2 18-2 25 0 6 3 1 5-13 5s-19-2-12-5zm65 0c9-2 23-2 30 0 6 3-1 5-18 5-16 0-22-2-12-5zm190 0c15-2 39-2 55 0 15 2 2 4-28 4s-43-2-27-4zm105 0c7-3 16-2 19 1 4 3-2 6-13 5-11 0-14-3-6-6zm50 0c7-3 16-2 19 1 4 3-2 6-13 5-11 0-14-3-6-6zm140 0c7-3 16-2 19 1 4 3-2 6-13 5-11 0-14-3-6-6zm160 0c6-2 18-2 25 0 6 3 1 5-13 5s-19-2-12-5zm230 0c7-3 16-2 19 1 4 3-2 6-13 5-11 0-14-3-6-6zm160 0c7-3 16-2 19 1 4 3-2 6-13 5-11 0-14-3-6-6zm250 0c6-2 18-2 25 0 6 3 1 5-13 5s-19-2-12-5zm100 0c7-3 16-2 19 1 4 3-2 6-13 5-11 0-14-3-6-6zm90 0c6-2 18-2 25 0 6 3 1 5-13 5s-19-2-12-5zm50 0c6-2 18-2 25 0 6 3 1 5-13 5s-19-2-12-5zm120 0c6-2 18-2 25 0 6 3 1 5-13 5s-19-2-12-5zm80 0c6-2 18-2 25 0 6 3 1 5-13 5s-19-2-12-5zm120 0c6-2 18-2 25 0 6 3 1 5-13 5s-19-2-12-5zm305 0c26-2 68-2 95 0 26 2 4 3-48 3s-74-1-47-3zm165 0c12-2 32-2 45 0 12 2 2 4-23 4s-35-2-22-4zm85 0c9-2 23-2 30 0 6 3-1 5-18 5-16 0-22-2-12-5zm95 0c18-2 45-2 60 0s0 4-33 4-45-2-27-4zm230 0c6-2 18-2 25 0 6 3 1 5-13 5s-19-2-12-5zm95 0c32-2 81-2 110 0s3 3-58 3c-60 0-84-1-52-3zm175 0c7-3 16-2 19 1 4 3-2 6-13 5-11 0-14-3-6-6zm55 0c15-2 39-2 55 0 15 2 2 4-28 4s-43-2-27-4zm1165-160c12-2 30-2 40 0 9 3-1 5-23 4-22 0-30-2-17-4z" />
            </g>
        </svg>
        <svg xmlns="http://www.w3.org/2000/svg" width="1718" height="2048" version="1.0"
            viewBox="0 0 1718 2048">
            <g fill="red" transform="matrix(.1 0 0 -.1 0 2048)">
                <path
                    d="M1080 20459c-176-20-335-57-480-111-65-24-141-78-232-166-227-218-313-429-353-862-14-160-15-982-12-9290C6 1383 7 911 23 830c53-254 154-443 299-560 74-59 215-133 325-171 190-64-513-59 8251-59 7122 0 7984 2 8030 15 102 31 187 122 210 227 17 72 7 96-62 148-93 71-158 164-209 305-101 274-110 552-26 810 68 212 135 325 267 451l52 50v9040c0 6464-3 9057-11 9100-21 115-105 221-207 261-45 17-297 18-7917 19-4329 1-7904-2-7945-7zm15785-180c53-15 101-68 120-131 13-46 15-991 15-8836 0-8149-1-8785-17-8800-22-22-60-41-86-43-12-1-3351-4-7419-6-4957-2-7398 0-7398 7 0 5-7 10-15 10s-21 12-29 28c-12 23-13 82-8 367 10 510 8 16706-2 17030-4 154-10 304-12 333l-3 52h7407c5385 0 7418-3 7447-11zm-15338-183c94-47 158-134 199-271 18-58 19-347 22-8450 2-6239 0-8400-9-8430-15-54-84-120-135-128-22-4-116-7-210-7-311 0-522-33-800-125-91-30-171-52-177-49-7 2-25 25-41 51-28 47-28 47-17 139 6 51 11 122 11 158 0 35 4 67 10 71s9 2838 10 7873c0 7316-2 8141-25 8592-4 79-2 90 28 153 18 38 36 65 40 60 5-4 8-3 7 2-5 24 3 38 61 100 103 110 203 172 359 223 144 46 233 64 370 71 155 8 235-1 297-33zM16846 1988c1-2-16-35-38-73-38-66-63-120-101-225l-17-45-7986 2c-4393 1-7990 5-7993 9-3 3 33 43 80 88 64 61 108 93 170 124 132 66 332 108 559 120 124 7 15319 6 15326 0zm-190-460c-3-13-13-77-22-143s-18-126-20-133c-3-10-1611-12-8016-10l-8013 3 4 45c4 54 33 170 55 223l16 37h8001c8001 0 8001 0 7995-22zm-48-378c8 0 12-19 12-62 1-35 7-99 15-143s15-88 15-97c0-17-387-18-7998-18-6383 0-8001 3-8014 13-29 22-59 145-56 228 3 73 3 74 32 79 17 3 3619 4 8005 2 4387-1 7982-2 7989-2zm102-472c25-69 77-176 109-223 12-16 21-33 21-38 0-4-3504-6-7787-4-7069 3-7795 4-7863 19-86 18-236 67-304 99-60 28-137 98-170 153-14 25-26 47-26 50s3599 6 7999 6h7998l23-62z" />
            </g>
        </svg>
        <svg xmlns="http://www.w3.org/2000/svg" width="1718" height="2048" version="1.0"
            viewBox="0 0 1718 2048">
            <g fill="black" transform="matrix(.1 0 0 -.1 0 2048)">
                <path
                    d="M1080 20459c-176-20-335-57-480-111-65-24-141-78-232-166-227-218-313-429-353-862-14-160-15-982-12-9290C6 1383 7 911 23 830c53-254 154-443 299-560 74-59 215-133 325-171 190-64-513-59 8251-59 7122 0 7984 2 8030 15 102 31 187 122 210 227 17 72 7 96-62 148-93 71-158 164-209 305-101 274-110 552-26 810 68 212 135 325 267 451l52 50v9040c0 6464-3 9057-11 9100-21 115-105 221-207 261-45 17-297 18-7917 19-4329 1-7904-2-7945-7zm15844-208c19-18 44-55 55-82 21-48 21-48 22-8875 0-4854-2-8828-4-8830-3-3-14778-8-14937-5l-55 1v17830l7442-2 7442-3 35-34zm-15410-144c110-51 184-156 220-314 15-66 16-761 16-8461V2944l-29-46c-52-82-53-82-331-90-358-9-555-42-833-137-65-23-124-41-132-41s-29 13-47 29c-33 29-33 29-30 193 1 90 4 3898 7 8462l5 8299 35 72c89 179 245 303 477 379 157 52 322 76 485 71 83-2 111-7 157-28zM16846 1988c1-2-16-35-38-73-38-66-63-120-101-225l-17-45-7986 2c-4393 1-7990 5-7993 9-3 3 33 43 80 88 64 61 108 93 170 124 132 66 332 108 559 120 124 7 15319 6 15326 0zm-190-460c-3-13-13-77-22-143s-18-126-20-133c-3-10-1611-12-8016-10l-8013 3 4 45c4 54 33 170 55 223l16 37h8001c8001 0 8001 0 7995-22zm-48-378c8 0 12-19 12-62 1-35 7-99 15-143s15-88 15-97c0-17-387-18-7998-18-6383 0-8001 3-8014 13-29 22-59 145-56 228 3 73 3 74 32 79 17 3 3619 4 8005 2 4387-1 7982-2 7989-2zm102-472c25-69 77-176 109-223 12-16 21-33 21-38 0-4-3504-6-7787-4-7069 3-7795 4-7863 19-86 18-236 67-304 99-60 28-137 98-170 153-14 25-26 47-26 50s3599 6 7999 6h7998l23-62z" />
            </g>
        </svg>
        <svg xmlns="http://www.w3.org/2000/svg" width="1718" height="2048" version="1.0"
            viewBox="0 0 1718 2048">
            <g fill="black" transform="matrix(.1 0 0 -.1 0 2048)">
                <path
                    d="M1080 20459c-176-20-335-57-480-111-65-24-141-78-232-166-227-218-313-429-353-862-14-160-15-982-12-9290C6 1383 7 911 23 830c53-254 154-443 299-560 74-59 215-133 325-171 190-64-513-59 8251-59 7122 0 7984 2 8030 15 102 31 187 122 210 227 17 72 7 96-62 148-93 71-158 164-209 305-101 274-110 552-26 810 68 212 135 325 267 451l52 50v9040c0 6464-3 9057-11 9100-21 115-105 221-207 261-45 17-297 18-7917 19-4329 1-7904-2-7945-7zm15807-180c42-14 88-75 108-143 13-45 15-1123 13-8866l-3-8815H9503c-4127 0-7503 3-7503 8v17832l7427-2c5464-2 7435-5 7460-14zm-15375-166c109-49 188-162 225-322 17-73 18-447 18-8461 0-7802-1-8387-17-8415-9-16-30-44-48-62-42-43-95-52-305-51-295 1-512-33-790-123-84-27-161-49-171-49-23 0-58 27-73 57-8 16-11 2260-11 8441 0 8328 0 8419 20 8476 85 249 292 414 620 495 126 31 210 40 355 37 107-2 138-6 177-23zM16846 1988c1-2-16-35-38-73-38-66-63-120-101-225l-17-45-7986 2c-4393 1-7990 5-7993 9-3 3 33 43 80 88 64 61 108 93 170 124 132 66 332 108 559 120 124 7 15319 6 15326 0zm-190-460c-3-13-13-77-22-143s-18-126-20-133c-3-10-1611-12-8016-10l-8013 3 4 45c4 54 33 170 55 223l16 37h8001c8001 0 8001 0 7995-22zm-48-378c8 0 12-19 12-62 1-35 7-99 15-143s15-88 15-97c0-17-387-18-7998-18-6383 0-8001 3-8014 13-29 22-59 145-56 228 3 73 3 74 32 79 17 3 3619 4 8005 2 4387-1 7982-2 7989-2zm102-472c25-69 77-176 109-223 12-16 21-33 21-38 0-4-3504-6-7787-4-7069 3-7795 4-7863 19-86 18-236 67-304 99-60 28-137 98-170 153-14 25-26 47-26 50s3599 6 7999 6h7998l23-62z" />
            </g>
        </svg>
        <svg xmlns="http://www.w3.org/2000/svg" width="1718" height="2048" version="1.0"
            viewBox="0 0 1718 2048">
            <g fill="black" transform="matrix(.1 0 0 -.1 0 2048)">
                <path
                    d="M1080 20459c-176-20-335-57-480-111-65-24-141-78-232-166-227-218-313-429-353-862-14-160-15-982-12-9290C6 1383 7 911 23 830c53-254 154-443 299-560 74-59 215-133 325-171 190-64-513-59 8251-59 7122 0 7984 2 8030 15 102 31 187 122 210 227 17 72 7 96-62 148-93 71-158 164-209 305-101 274-110 552-26 810 68 212 135 325 267 451l52 50v9040c0 6464-3 9057-11 9100-21 115-105 221-207 261-45 17-297 18-7917 19-4329 1-7904-2-7945-7zm15792-169c46-13 101-75 123-138 14-42 15-876 15-8847V2450H1990v8918c0 4905 3 8922 7 8925 11 12 14833 8 14875-3zm-15366-171c107-40 187-147 231-309 17-62 18-436 18-8472V2932l-30-43c-60-84-55-83-333-91-381-10-530-34-834-135-132-44-139-45-163-29-13 9-33 28-42 43-17 26-18 421-21 8428-1 5824 1 8415 8 8450 6 28 29 87 51 132 74 150 219 279 393 352 234 97 574 135 722 80zM16846 1988c1-2-16-35-38-73-38-66-63-120-101-225l-17-45-7986 2c-4393 1-7990 5-7993 9-3 3 33 43 80 88 64 61 108 93 170 124 132 66 332 108 559 120 124 7 15319 6 15326 0zm-190-460c-3-13-13-77-22-143s-18-126-20-133c-3-10-1611-12-8016-10l-8013 3 4 45c4 54 33 170 55 223l16 37h8001c8001 0 8001 0 7995-22zm-48-378c8 0 12-19 12-62 1-35 7-99 15-143s15-88 15-97c0-17-387-18-7998-18-6383 0-8001 3-8014 13-29 22-59 145-56 228 3 73 3 74 32 79 17 3 3619 4 8005 2 4387-1 7982-2 7989-2zm102-472c25-69 77-176 109-223 12-16 21-33 21-38 0-4-3504-6-7787-4-7069 3-7795 4-7863 19-86 18-236 67-304 99-60 28-137 98-170 153-14 25-26 47-26 50s3599 6 7999 6h7998l23-62z" />
            </g>
        </svg>
        <svg xmlns="http://www.w3.org/2000/svg" width="1718" height="2048" version="1.0"
            viewBox="0 0 1718 2048">
            <g fill="black" transform="matrix(.1 0 0 -.1 0 2048)">
                <path
                    d="M1065 20453c-160-14-389-71-507-127-56-27-191-138-259-213-122-136-203-311-248-538-54-273-51 334-51-9474C0 243-4 919 55 717c67-233 164-379 317-479C526 137 674 80 845 55c88-14 1056-15 8080-13l7980 3 61 28c34 16 76 43 92 60 42 43 83 137 85 193 2 43-1 49-33 73-79 58-159 150-195 220-140 279-171 618-84 904 66 217 129 329 248 446l76 75v9065c0 8787-1 9068-18 9122-26 77-91 157-158 194l-54 30-7910 1c-4350 0-7928-1-7950-3zm15770-153c79-13 103-32 145-115l35-70V2445l-7505-3c-6890-2-7506-1-7517 14-9 12-12 1980-13 8548 0 4692 2 8703 6 8913l7 383 646 3c2023 8 14143 6 14196-3zm-15312-185c104-51 174-147 213-290 19-68 19-254 19-8486V2923l-29-41c-56-81-75-87-286-89-382-3-587-34-876-132-65-23-128-41-139-41-30 0-60 25-79 63-14 32-16 715-16 8450 0 8415 0 8415 25 8482 53 141 137 249 260 334 95 66 176 103 312 142 147 41 276 59 418 55 109-2 125-5 178-31zM16850 1992c0-5-20-44-45-87-39-69-58-113-104-237l-11-28H8702c-4394 0-7991 3-7995 6-10 10 69 98 131 147 140 109 334 169 633 196 123 11 15379 14 15379 3zm-196-462c-1-14-10-85-20-158l-19-132-8015 2-8015 3 4 50c4 57 32 172 55 228l16 37 7998-2c7997-3 7997-3 7996-28zm-28-485c10-102 18-154 30-197 5-17-381-18-8004-18-6963 0-8011 2-8022 14-25 31-50 141-50 222 0 44 3 84 7 87 3 4 3611 6 8017 5l8011-3 11-110zm94-388c17-45 51-116 76-158 24-42 44-79 44-82 0-12-15464-8-15565 3-168 19-356 80-453 147-45 31-93 88-136 161-6 9 1597 12 7998 12h8004l32-83z" />
            </g>
        </svg>
    </g>
</svg>